<svg width="2357" height="2311" viewBox="0 0 2357 2311" fill="none" xmlns="http://www.w3.org/2000/svg">
<rect width="2357" height="2311" fill="white"/>
<g opacity="0.1">
<path d="M563.707 1866.01C623.889 1967.88 589.835 2099.43 487.595 2159.83C385.355 2220.23 253.697 2186.58 193.516 2084.71C133.335 1982.84 167.388 1851.28 269.628 1790.88C371.868 1730.48 503.526 1764.14 563.707 1866.01Z" stroke="#B1DDEF" stroke-width="11"/>
<path d="M382.9 2012.81C382.994 2000.71 396.645 1993.7 406.54 2000.67L526.972 2085.53C532.765 2089.61 533.262 2098.01 527.99 2102.75V2102.75C527.823 2102.9 527.671 2103.05 527.511 2103.2C525.008 2105.69 502.11 2127.91 466.403 2146.26C443.079 2158.24 416.342 2165.98 399.242 2170.15C390.136 2172.38 381.722 2165.33 381.795 2155.96L382.9 2012.81Z" fill="#B1DDEF"/>
<path d="M416.82 1990.99C406.45 1984.75 407.363 1969.43 418.401 1964.46L552.752 1904.01C559.214 1901.1 566.703 1904.96 568.096 1911.9V1911.9C568.14 1912.12 568.187 1912.33 568.242 1912.55C569.105 1915.97 576.574 1946.99 574.186 1987.06C572.625 2013.24 565.672 2040.19 560.56 2057.03C557.838 2066 547.494 2069.66 539.464 2064.83L416.82 1990.99Z" fill="#B1DDEF"/>
<path d="M408.699 1951.15C398.122 1957.04 385.29 1948.62 386.479 1936.57L400.952 1789.96C401.648 1782.91 408.717 1778.33 415.436 1780.58V1780.58C415.649 1780.65 415.851 1780.71 416.067 1780.77C419.462 1781.73 450.083 1790.7 483.646 1812.72C505.57 1827.11 525.48 1846.56 537.543 1859.38C543.965 1866.21 541.986 1877 533.795 1881.56L408.699 1951.15Z" fill="#B1DDEF"/>
<path d="M373.106 1938.9C372.831 1951 359.075 1957.81 349.287 1950.69L230.147 1864.02C224.416 1859.85 224.045 1851.44 229.388 1846.79V1846.79C229.557 1846.64 229.712 1846.49 229.873 1846.34C232.414 1843.89 255.644 1822.02 291.623 1804.21C315.125 1792.58 341.975 1785.25 359.137 1781.33C368.275 1779.24 376.582 1786.41 376.368 1795.78L373.106 1938.9Z" fill="#B1DDEF"/>
<path d="M341.698 1958.57C351.903 1965.07 350.596 1980.37 339.434 1985.05L203.571 2042.02C197.036 2044.76 189.649 2040.72 188.436 2033.74C188.397 2033.52 188.355 2033.31 188.306 2033.09C187.532 2029.65 180.864 1998.45 184.283 1958.45C186.516 1932.32 194.16 1905.56 199.704 1888.85C202.656 1879.95 213.092 1876.56 220.995 1881.6L341.698 1958.57Z" fill="#B1DDEF"/>
<path d="M349.255 1996.26C359.947 1990.58 372.608 1999.26 371.178 2011.28L353.772 2157.57C352.935 2164.61 345.775 2169.04 339.102 2166.66V2166.66C338.891 2166.58 338.69 2166.52 338.475 2166.45C335.101 2165.43 304.665 2155.85 271.55 2133.15C249.919 2118.33 230.402 2098.49 218.599 2085.43C212.314 2078.47 214.51 2067.72 222.79 2063.33L349.255 1996.26Z" fill="#B1DDEF"/>
<path d="M1985.5 1203.41C1985.5 1343.63 1871.57 1457.33 1731 1457.33C1590.43 1457.33 1476.5 1343.63 1476.5 1203.41C1476.5 1063.19 1590.43 949.5 1731 949.5C1871.57 949.5 1985.5 1063.19 1985.5 1203.41Z" stroke="#B1DDEF" stroke-width="11"/>
<path d="M1708.72 1176.21C1716.55 1182.47 1711.33 1195.08 1701.36 1193.96L1522.96 1173.94C1518.1 1173.39 1514.35 1169.41 1514.09 1164.52L1514 1162.81C1513.99 1162.5 1513.96 1162.21 1513.92 1161.9C1513.49 1158.38 1511.1 1134.54 1521.66 1109.06C1529.82 1089.38 1546.79 1072.22 1555.85 1064.01C1559.29 1060.89 1564.42 1060.9 1568.05 1063.8L1708.72 1176.21Z" fill="#B1DDEF"/>
<path d="M1725.71 1165.59C1728.1 1175.33 1716.27 1182.13 1709.05 1175.17L1579.92 1050.45C1576.4 1047.05 1575.86 1041.61 1578.64 1037.58L1579.61 1036.17C1579.79 1035.92 1579.95 1035.67 1580.1 1035.4C1581.91 1032.35 1594.56 1012 1618.47 998.259C1636.95 987.64 1660.86 984.404 1673.05 983.421C1677.68 983.048 1681.74 986.185 1682.84 990.696L1725.71 1165.59Z" fill="#B1DDEF"/>
<path d="M1747.61 1168.13C1743.75 1177.39 1730.19 1175.83 1728.52 1165.95L1698.65 988.928C1697.84 984.103 1700.64 979.398 1705.26 977.808L1706.88 977.252C1707.18 977.15 1707.45 977.042 1707.74 976.921C1711 975.537 1733.26 966.674 1760.66 969.813C1781.83 972.239 1802.99 983.83 1813.39 990.277C1817.33 992.725 1818.74 997.659 1816.95 1001.95L1747.61 1168.13Z" fill="#B1DDEF"/>
<path d="M1763.39 1182.49C1754.86 1187.76 1744.75 1178.6 1749.15 1169.59L1828.01 1008.32C1830.16 1003.92 1835.17 1001.73 1839.86 1003.13L1841.5 1003.62C1841.8 1003.71 1842.08 1003.78 1842.39 1003.85C1845.85 1004.63 1869.1 1010.39 1889.54 1028.91C1905.34 1043.21 1915.78 1064.96 1920.47 1076.26C1922.26 1080.55 1920.52 1085.37 1916.57 1087.82L1763.39 1182.49Z" fill="#B1DDEF"/>
<path d="M1769.25 1200.93C1759.25 1200.2 1756.44 1186.84 1765.29 1182.13L1923.77 1097.81C1928.09 1095.51 1933.44 1096.67 1936.41 1100.56L1937.45 1101.92C1937.64 1102.17 1937.83 1102.39 1938.03 1102.63C1940.38 1105.29 1955.83 1123.6 1961.52 1150.58C1965.91 1171.44 1961.61 1195.18 1958.78 1207.08C1957.71 1211.6 1953.47 1214.49 1948.84 1214.15L1769.25 1200.93Z" fill="#B1DDEF"/>
<path d="M1762.42 1219.89C1754.6 1213.61 1759.86 1201.02 1769.82 1202.16L1948.17 1222.61C1953.03 1223.17 1956.78 1227.16 1957.02 1232.05L1957.11 1233.76C1957.12 1234.07 1957.15 1234.36 1957.19 1234.67C1957.61 1238.19 1959.94 1262.04 1949.32 1287.49C1941.11 1307.16 1924.1 1324.27 1915.02 1332.46C1911.58 1335.57 1906.45 1335.55 1902.82 1332.64L1762.42 1219.89Z" fill="#B1DDEF"/>
<path d="M1742.07 1232C1739.64 1222.27 1751.44 1215.41 1758.69 1222.34L1888.44 1346.41C1891.97 1349.79 1892.54 1355.23 1889.78 1359.28L1888.82 1360.69C1888.64 1360.95 1888.49 1361.2 1888.33 1361.46C1886.54 1364.53 1873.99 1384.94 1850.15 1398.8C1831.72 1409.51 1807.83 1412.86 1795.64 1413.9C1791.02 1414.3 1786.94 1411.18 1785.81 1406.68L1742.07 1232Z" fill="#B1DDEF"/>
<path d="M1720.17 1229.57C1723.98 1220.29 1737.55 1221.78 1739.27 1231.66L1770.02 1408.53C1770.86 1413.35 1768.08 1418.07 1763.46 1419.68L1761.85 1420.24C1761.55 1420.35 1761.28 1420.46 1760.99 1420.58C1757.74 1421.98 1735.52 1430.95 1708.11 1427.95C1686.92 1425.63 1665.7 1414.14 1655.28 1407.75C1651.32 1405.32 1649.89 1400.39 1651.66 1396.1L1720.17 1229.57Z" fill="#B1DDEF"/>
<path d="M1704.31 1215.29C1712.81 1209.97 1722.97 1219.09 1718.62 1228.12L1640.56 1389.78C1638.44 1394.19 1633.43 1396.41 1628.74 1395.03L1627.1 1394.55C1626.8 1394.46 1626.51 1394.39 1626.21 1394.32C1622.74 1393.56 1599.46 1387.91 1578.93 1369.5C1563.06 1355.27 1552.51 1333.57 1547.76 1322.3C1545.96 1318.02 1547.67 1313.19 1551.61 1310.73L1704.31 1215.29Z" fill="#B1DDEF"/>
<path d="M1698.36 1196.87C1708.36 1197.56 1711.25 1210.9 1702.42 1215.66L1544.36 1300.77C1540.05 1303.09 1534.7 1301.95 1531.7 1298.08L1530.66 1296.73C1530.47 1296.48 1530.28 1296.26 1530.07 1296.02C1527.71 1293.37 1512.17 1275.14 1506.35 1248.18C1501.85 1227.35 1506.03 1203.59 1508.8 1191.68C1509.85 1187.15 1514.07 1184.24 1518.71 1184.56L1698.36 1196.87Z" fill="#B1DDEF"/>
<path d="M1120.5 1494.94C1120.5 1628.27 1012.16 1736.38 878.5 1736.38C744.835 1736.38 636.5 1628.27 636.5 1494.94C636.5 1361.61 744.835 1253.5 878.5 1253.5C1012.16 1253.5 1120.5 1361.61 1120.5 1494.94Z" stroke="#FFD467" stroke-width="11"/>
<path d="M855.991 1468.01C863.824 1474.27 858.597 1486.88 848.633 1485.76L680.869 1466.93C676.007 1466.38 672.253 1462.4 671.999 1457.51L671.936 1456.31C671.92 1456 671.891 1455.71 671.854 1455.4C671.436 1451.97 669.192 1429.32 679.223 1405.13C686.91 1386.59 702.804 1370.41 711.493 1362.49C714.926 1359.36 720.051 1359.38 723.679 1362.27L855.991 1468.01Z" fill="#FFD467"/>
<path d="M873.071 1457.32C875.458 1467.06 863.624 1473.86 856.412 1466.9L734.982 1349.62C731.462 1346.22 730.919 1340.77 733.699 1336.75L734.379 1335.76C734.556 1335.5 734.712 1335.25 734.871 1334.99C736.632 1332.01 748.671 1312.7 771.382 1299.65C788.785 1289.65 811.249 1286.53 822.963 1285.56C827.592 1285.17 831.645 1288.31 832.751 1292.82L873.071 1457.32Z" fill="#FFD467"/>
<path d="M894.951 1459.82C891.09 1469.08 877.529 1467.52 875.861 1457.64L847.775 1291.17C846.961 1286.35 849.758 1281.64 854.386 1280.05L855.519 1279.66C855.813 1279.56 856.088 1279.45 856.374 1279.33C859.555 1277.98 880.709 1269.59 906.733 1272.57C926.674 1274.86 946.604 1285.68 956.607 1291.86C960.559 1294.29 961.958 1299.23 960.17 1303.51L894.951 1459.82Z" fill="#FFD467"/>
<path d="M910.752 1474.15C902.223 1479.42 892.107 1470.26 896.511 1461.25L970.666 1309.59C972.816 1305.2 977.83 1303 982.518 1304.4L983.666 1304.75C983.964 1304.84 984.25 1304.91 984.554 1304.98C987.923 1305.74 1010.01 1311.24 1029.42 1328.82C1044.3 1342.3 1054.19 1362.71 1058.72 1373.55C1060.51 1377.84 1058.78 1382.66 1054.83 1385.1L910.752 1474.15Z" fill="#FFD467"/>
<path d="M916.572 1492.7C906.572 1491.97 903.757 1478.61 912.609 1473.9L1061.64 1394.6C1065.96 1392.31 1071.31 1393.47 1074.28 1397.36L1075.01 1398.31C1075.2 1398.56 1075.39 1398.78 1075.6 1399.02C1077.88 1401.61 1092.53 1419.02 1097.93 1444.65C1102.08 1464.29 1098.11 1486.62 1095.42 1498.06C1094.35 1502.59 1090.12 1505.47 1085.49 1505.13L916.572 1492.7Z" fill="#FFD467"/>
<path d="M909.707 1511.67C901.889 1505.39 907.147 1492.8 917.108 1493.94L1084.83 1513.17C1089.69 1513.73 1093.43 1517.72 1093.67 1522.61L1093.73 1523.81C1093.75 1524.12 1093.78 1524.41 1093.81 1524.72C1094.22 1528.15 1096.41 1550.8 1086.33 1574.97C1078.59 1593.5 1062.66 1609.64 1053.95 1617.54C1050.51 1620.65 1045.39 1620.63 1041.77 1617.72L909.707 1511.67Z" fill="#FFD467"/>
<path d="M889.447 1523.77C887.011 1514.04 898.811 1507.18 906.058 1514.11L1028.07 1630.78C1031.61 1634.16 1032.18 1639.61 1029.42 1643.65L1028.74 1644.64C1028.57 1644.89 1028.41 1645.15 1028.25 1645.41C1026.51 1648.39 1014.57 1667.77 991.921 1680.93C974.568 1691.02 952.119 1694.25 940.41 1695.28C935.784 1695.69 931.715 1692.57 930.587 1688.07L889.447 1523.77Z" fill="#FFD467"/>
<path d="M867.556 1521.38C871.371 1512.1 884.939 1513.59 886.657 1523.47L915.572 1689.79C916.411 1694.61 913.637 1699.33 909.017 1700.94L907.886 1701.34C907.592 1701.44 907.318 1701.55 907.032 1701.67C903.858 1703.04 882.747 1711.53 856.709 1708.68C836.756 1706.5 816.772 1695.77 806.739 1689.65C802.774 1687.23 801.351 1682.31 803.118 1678.01L867.556 1521.38Z" fill="#FFD467"/>
<path d="M851.682 1507.13C860.185 1501.81 870.347 1510.93 865.987 1519.96L792.59 1671.98C790.462 1676.39 785.458 1678.61 780.764 1677.23L779.614 1676.89C779.316 1676.8 779.029 1676.73 778.725 1676.67C775.352 1675.92 753.242 1670.53 733.741 1653.04C718.797 1639.64 708.804 1619.28 704.216 1608.46C702.404 1604.19 704.116 1599.35 708.054 1596.89L851.682 1507.13Z" fill="#FFD467"/>
<path d="M845.77 1488.6C855.773 1489.29 858.655 1502.63 849.827 1507.38L701.191 1587.43C696.882 1589.75 691.528 1588.61 688.536 1584.73L687.803 1583.79C687.613 1583.54 687.422 1583.32 687.216 1583.08C684.92 1580.5 670.18 1563.16 664.649 1537.56C660.41 1517.94 664.264 1495.59 666.899 1484.13C667.941 1479.61 672.161 1476.7 676.795 1477.02L845.77 1488.6Z" fill="#FFD467"/>
<path d="M2233.5 450.689C2233.5 645.737 2075.02 803.877 1879.5 803.877C1683.98 803.877 1525.5 645.737 1525.5 450.689C1525.5 255.64 1683.98 97.5 1879.5 97.5C2075.02 97.5 2233.5 255.64 2233.5 450.689Z" stroke="#FCFF67" stroke-width="11"/>
<path d="M1859.04 421.351C1866.88 427.61 1861.65 440.219 1851.69 439.1L1588.62 409.568C1583.76 409.022 1580.01 405.038 1579.75 400.151L1579.45 394.369C1579.43 394.058 1579.4 393.757 1579.37 393.448C1578.83 389.208 1575.27 355.878 1590.05 320.231C1602.05 291.266 1627.85 266.27 1639.59 255.904C1643.07 252.83 1648.19 252.847 1651.82 255.747L1859.04 421.351Z" fill="#FCFF67"/>
<path d="M1875.34 411.263C1877.73 421.001 1865.9 427.802 1858.68 420.836L1668.27 236.938C1664.76 233.539 1664.21 228.092 1666.99 224.065L1670.28 219.299C1670.46 219.043 1670.62 218.787 1670.78 218.518C1672.94 214.833 1690.45 186.25 1723.91 167.024C1751.1 151.4 1786.79 147.335 1802.41 146.283C1807.04 145.971 1811.09 149.109 1812.19 153.62L1875.34 411.263Z" fill="#FCFF67"/>
<path d="M1897.36 414.135C1893.5 423.389 1879.94 421.835 1878.27 411.948L1834.23 150.922C1833.42 146.097 1836.22 141.391 1840.84 139.801L1846.32 137.919C1846.61 137.818 1846.89 137.707 1847.18 137.584C1851.11 135.903 1882.17 123.3 1920.51 127.692C1951.66 131.261 1982.79 149.179 1995.99 157.608C1999.9 160.108 2001.3 165.034 1999.51 169.321L1897.36 414.135Z" fill="#FCFF67"/>
<path d="M1913.02 428.725C1904.49 433.996 1894.38 424.833 1898.78 415.826L2015.06 178.016C2017.21 173.62 2022.22 171.425 2026.91 172.829L2032.46 174.489C2032.76 174.579 2033.05 174.652 2033.35 174.719C2037.53 175.642 2070.11 183.495 2098.71 209.4C2121.95 230.45 2136.82 263.15 2142.63 277.689C2144.36 282.001 2142.62 286.817 2138.67 289.259L1913.02 428.725Z" fill="#FCFF67"/>
<path d="M1919.18 446.29C1909.18 445.555 1906.36 432.199 1915.21 427.489L2148.91 303.144C2153.23 300.845 2158.58 302.011 2161.55 305.898L2165.07 310.497C2165.25 310.744 2165.45 310.976 2165.66 311.208C2168.49 314.404 2190.27 339.884 2198.23 377.642C2204.7 408.324 2197.55 443.526 2193.73 458.71C2192.6 463.214 2188.36 466.094 2183.73 465.753L1919.18 446.29Z" fill="#FCFF67"/>
<path d="M1912.62 465.179C1904.8 458.9 1910.05 446.304 1920.02 447.447L2183.01 477.606C2187.87 478.164 2191.61 482.157 2191.86 487.044L2192.14 492.828C2192.16 493.139 2192.19 493.439 2192.23 493.748C2192.75 497.99 2196.23 531.329 2181.37 566.939C2169.29 595.876 2143.44 620.811 2131.68 631.148C2128.19 634.214 2123.07 634.185 2119.45 631.277L1912.62 465.179Z" fill="#FCFF67"/>
<path d="M1891.6 477.362C1889.16 467.635 1900.96 460.776 1908.21 467.705L2099.53 650.652C2103.07 654.033 2103.64 659.478 2100.88 663.518L2097.61 668.3C2097.44 668.557 2097.28 668.814 2097.12 669.084C2094.98 672.78 2077.61 701.449 2044.25 720.842C2017.14 736.601 1981.47 740.844 1965.85 741.974C1961.22 742.309 1957.16 739.192 1956.03 734.687L1891.6 477.362Z" fill="#FCFF67"/>
<path d="M1869.56 474.599C1873.38 465.327 1886.95 466.812 1888.66 476.691L1934.01 737.495C1934.84 742.315 1932.07 747.035 1927.45 748.648L1921.98 750.557C1921.69 750.66 1921.41 750.773 1921.12 750.896C1917.2 752.597 1886.21 765.355 1847.85 761.154C1816.68 757.741 1785.46 739.978 1772.22 731.615C1768.29 729.135 1766.87 724.215 1768.64 719.92L1869.56 474.599Z" fill="#FCFF67"/>
<path d="M1853.83 460.088C1862.33 454.774 1872.5 463.886 1868.14 472.916L1753.04 711.302C1750.92 715.709 1745.91 717.929 1741.22 716.549L1735.66 714.915C1735.36 714.828 1735.07 714.756 1734.77 714.69C1730.59 713.788 1697.96 706.098 1669.23 680.336C1645.89 659.402 1630.86 626.776 1624.97 612.266C1623.23 607.963 1624.94 603.138 1628.88 600.677L1853.83 460.088Z" fill="#FCFF67"/>
<path d="M1847.59 442.553C1857.59 443.239 1860.47 456.58 1851.64 461.334L1618.57 586.843C1614.27 589.163 1608.91 588.025 1605.92 584.153L1602.38 579.571C1602.19 579.325 1601.99 579.094 1601.79 578.863C1598.93 575.681 1577.02 550.31 1568.88 512.592C1562.25 481.943 1569.23 446.706 1572.98 431.502C1574.09 426.993 1578.31 424.092 1582.94 424.41L1847.59 442.553Z" fill="#FCFF67"/>
<path d="M959.047 486C959.047 696.118 788.147 866.5 577.273 866.5C366.4 866.5 195.5 696.118 195.5 486C195.5 275.882 366.4 105.5 577.273 105.5C788.147 105.5 959.047 275.882 959.047 486Z" stroke="#B5DA85" stroke-width="17"/>
<path d="M561.453 528.038C567.689 517.665 583.011 518.569 587.984 529.604L706.52 792.65C710.478 801.435 705.246 811.62 695.8 813.519L690.095 814.666C689.795 814.726 689.538 814.785 689.242 814.86C684.025 816.189 628.774 829.717 557.201 825.491C503.22 822.304 447.368 806.161 420.116 797.294C411.203 794.393 407.54 784.03 412.37 775.997L561.453 528.038Z" fill="#B5DA85"/>
<path d="M610.938 524.82C605.185 514.171 613.764 501.445 625.794 502.783L912.546 534.681C922.122 535.746 928.225 545.435 925.05 554.532L923.132 560.026C923.031 560.315 922.951 560.566 922.865 560.859C921.353 566.026 904.867 620.468 864.791 679.919C834.565 724.758 792.236 764.611 770.729 783.552C763.695 789.746 752.91 787.623 748.455 779.376L610.938 524.82Z" fill="#B5DA85"/>
<path d="M622.867 475.626C610.767 475.313 604.002 461.536 611.153 451.77L781.599 218.978C787.291 211.203 798.732 210.735 805.04 218.019L808.85 222.418C809.05 222.648 809.228 222.843 809.439 223.063C813.167 226.948 852.172 268.353 883.773 332.71C907.607 381.25 921.091 437.802 926.808 465.885C928.677 475.069 921.466 483.365 912.096 483.122L622.867 475.626Z" fill="#B5DA85"/>
<path d="M590.06 444.21C583.667 454.488 568.361 453.353 563.555 442.244L448.995 177.442C445.169 168.599 450.554 158.493 460.028 156.737L465.75 155.677C466.05 155.621 466.308 155.566 466.605 155.495C471.842 154.245 527.291 141.55 598.791 146.854C652.719 150.854 708.321 167.836 735.436 177.114C744.304 180.148 747.811 190.565 742.861 198.524L590.06 444.21Z" fill="#B5DA85"/>
<path d="M546.116 446.848C551.593 457.642 542.689 470.144 530.698 468.496L244.862 429.228C235.316 427.916 229.465 418.074 232.873 409.061L234.932 403.618C235.04 403.333 235.127 403.083 235.22 402.793C236.865 397.666 254.746 343.666 296.339 285.267C327.71 241.221 371.051 202.471 393.038 184.09C400.229 178.078 410.955 180.479 415.197 188.837L546.116 446.848Z" fill="#B5DA85"/>
<path d="M535.757 492.429C547.847 492.985 554.335 506.894 546.991 516.515L371.916 745.846C366.069 753.505 354.621 753.744 348.46 746.336L344.739 741.861C344.544 741.627 344.37 741.428 344.163 741.204C340.513 737.246 302.346 695.068 272.041 630.09C249.183 581.083 236.835 524.272 231.682 496.08C229.996 486.86 237.373 478.711 246.735 479.142L535.757 492.429Z" fill="#B5DA85"/>
<path d="M2023.5 1899.5C2023.5 2062.96 1890.55 2195.51 1726.5 2195.51C1562.45 2195.51 1429.5 2062.96 1429.5 1899.5C1429.5 1736.05 1562.45 1603.5 1726.5 1603.5C1890.55 1603.5 2023.5 1736.05 2023.5 1899.5Z" stroke="#FCFF67" stroke-width="17"/>
<path d="M1710.91 1937.74C1717.15 1927.37 1732.47 1928.27 1737.44 1939.31L1825.99 2135.82C1829.95 2144.6 1824.72 2154.79 1815.27 2156.69L1814.91 2156.76C1814.61 2156.82 1814.34 2156.88 1814.04 2156.96C1809.36 2158.14 1766.36 2168.53 1710.79 2165.25C1670.85 2162.89 1629.6 2151.48 1607.19 2144.37C1598.25 2141.54 1594.6 2131.19 1599.43 2123.15L1710.91 1937.74Z" fill="#FCFF67"/>
<path d="M1755.81 1935.37C1750.06 1924.72 1758.64 1911.99 1770.67 1913.33L1984.88 1937.16C1994.46 1938.22 2000.56 1947.91 1997.39 1957.01L1997.27 1957.36C1997.17 1957.64 1997.08 1957.92 1996.99 1958.21C1995.63 1962.84 1982.68 2005.14 1951.56 2051.3C1929.2 2084.48 1898.37 2114.16 1880.85 2129.84C1873.86 2136.09 1863.09 2133.96 1858.64 2125.71L1755.81 1935.37Z" fill="#FCFF67"/>
<path d="M1768.41 1891.54C1756.31 1891.23 1749.55 1877.45 1756.7 1867.69L1884.03 1693.78C1889.72 1686.01 1901.16 1685.54 1907.47 1692.82L1907.71 1693.1C1907.91 1693.33 1908.1 1693.54 1908.31 1693.76C1911.65 1697.25 1941.89 1729.54 1966.42 1779.51C1984.06 1815.42 1994.45 1856.94 1999.32 1879.95C2001.26 1889.12 1994.05 1897.39 1984.68 1897.15L1768.41 1891.54Z" fill="#FCFF67"/>
<path d="M1739.8 1861.51C1733.4 1871.78 1718.1 1870.65 1713.29 1859.54L1627.71 1661.72C1623.88 1652.88 1629.27 1642.77 1638.74 1641.02L1639.1 1640.95C1639.4 1640.89 1639.68 1640.83 1639.98 1640.76C1644.68 1639.65 1687.83 1629.91 1743.34 1634.02C1783.24 1636.98 1824.31 1649.02 1846.62 1656.47C1855.51 1659.43 1859 1669.84 1854.05 1677.79L1739.8 1861.51Z" fill="#FCFF67"/>
<path d="M1699.29 1863.31C1704.77 1874.1 1695.87 1886.6 1683.88 1884.95L1470.34 1855.62C1460.8 1854.31 1454.95 1844.47 1458.36 1835.45L1458.49 1835.11C1458.59 1834.82 1458.69 1834.55 1458.78 1834.26C1460.26 1829.67 1474.3 1787.71 1506.59 1742.37C1529.8 1709.78 1561.38 1680.9 1579.31 1665.68C1586.45 1659.61 1597.16 1662.02 1601.4 1670.38L1699.29 1863.31Z" fill="#FCFF67"/>
<path d="M1687.79 1904.25C1699.88 1904.81 1706.36 1918.72 1699.02 1928.34L1568.23 2099.66C1562.38 2107.32 1550.94 2107.55 1544.77 2100.15L1544.54 2099.86C1544.34 2099.63 1544.16 2099.42 1543.95 2099.19C1540.68 2095.63 1511.1 2062.74 1487.57 2012.29C1470.66 1976.04 1461.09 1934.32 1456.69 1911.22C1454.94 1902.01 1462.31 1893.88 1471.67 1894.31L1687.79 1904.25Z" fill="#FCFF67"/>
</g>
</svg>
