<svg width="2357" height="2238" viewBox="0 0 2357 2238" fill="none" xmlns="http://www.w3.org/2000/svg">
<rect width="2357" height="2238" fill="white"/>
<g opacity="0.1">
<path d="M563.707 1793.01C623.889 1894.88 589.835 2026.43 487.595 2086.83C385.355 2147.23 253.697 2113.58 193.516 2011.71C133.335 1909.84 167.388 1778.28 269.628 1717.88C371.868 1657.48 503.526 1691.14 563.707 1793.01Z" stroke="#B1DDEF" stroke-width="11"/>
<path d="M382.9 1939.81C382.994 1927.71 396.645 1920.7 406.54 1927.67L526.972 2012.53C532.765 2016.61 533.262 2025.01 527.99 2029.75V2029.75C527.823 2029.9 527.671 2030.05 527.511 2030.2C525.008 2032.69 502.11 2054.91 466.403 2073.26C443.079 2085.24 416.342 2092.98 399.242 2097.15C390.136 2099.38 381.722 2092.33 381.795 2082.96L382.9 1939.81Z" fill="#B1DDEF"/>
<path d="M416.82 1917.99C406.45 1911.75 407.363 1896.43 418.401 1891.46L552.752 1831.01C559.214 1828.1 566.703 1831.96 568.096 1838.9V1838.9C568.14 1839.12 568.187 1839.33 568.242 1839.55C569.105 1842.97 576.574 1873.99 574.186 1914.06C572.625 1940.24 565.672 1967.19 560.56 1984.03C557.838 1993 547.494 1996.66 539.464 1991.83L416.82 1917.99Z" fill="#B1DDEF"/>
<path d="M408.699 1878.15C398.122 1884.04 385.29 1875.62 386.479 1863.57L400.952 1716.96C401.648 1709.91 408.717 1705.33 415.436 1707.58V1707.58C415.649 1707.65 415.851 1707.71 416.067 1707.77C419.462 1708.73 450.083 1717.7 483.646 1739.72C505.57 1754.11 525.48 1773.56 537.543 1786.38C543.965 1793.21 541.986 1804 533.795 1808.56L408.699 1878.15Z" fill="#B1DDEF"/>
<path d="M373.106 1865.9C372.831 1878 359.075 1884.81 349.287 1877.69L230.147 1791.02C224.416 1786.85 224.045 1778.44 229.388 1773.79V1773.79C229.557 1773.64 229.712 1773.49 229.873 1773.34C232.414 1770.89 255.644 1749.02 291.623 1731.21C315.125 1719.58 341.975 1712.25 359.137 1708.33C368.275 1706.24 376.582 1713.41 376.368 1722.78L373.106 1865.9Z" fill="#B1DDEF"/>
<path d="M341.698 1885.57C351.903 1892.07 350.596 1907.37 339.434 1912.05L203.571 1969.02C197.036 1971.76 189.649 1967.72 188.436 1960.74V1960.74C188.397 1960.52 188.355 1960.31 188.306 1960.09C187.532 1956.65 180.864 1925.45 184.283 1885.45C186.516 1859.32 194.16 1832.56 199.704 1815.85C202.656 1806.95 213.092 1803.56 220.995 1808.6L341.698 1885.57Z" fill="#B1DDEF"/>
<path d="M349.255 1923.26C359.947 1917.58 372.608 1926.26 371.178 1938.28L353.772 2084.57C352.935 2091.61 345.775 2096.04 339.102 2093.66V2093.66C338.891 2093.58 338.69 2093.52 338.475 2093.45C335.101 2092.43 304.665 2082.85 271.55 2060.15C249.919 2045.33 230.402 2025.49 218.599 2012.43C212.314 2005.47 214.51 1994.72 222.79 1990.33L349.255 1923.26Z" fill="#B1DDEF"/>
<path d="M1985.5 1130.41C1985.5 1270.63 1871.57 1384.33 1731 1384.33C1590.43 1384.33 1476.5 1270.63 1476.5 1130.41C1476.5 990.192 1590.43 876.5 1731 876.5C1871.57 876.5 1985.5 990.192 1985.5 1130.41Z" stroke="#B1DDEF" stroke-width="11"/>
<path d="M1708.72 1103.21C1716.55 1109.47 1711.33 1122.08 1701.36 1120.96L1522.96 1100.94C1518.1 1100.39 1514.35 1096.41 1514.09 1091.52L1514 1089.81C1513.99 1089.5 1513.96 1089.21 1513.92 1088.9C1513.49 1085.38 1511.1 1061.54 1521.66 1036.06C1529.82 1016.38 1546.79 999.224 1555.85 991.007C1559.29 987.887 1564.42 987.896 1568.05 990.796L1708.72 1103.21Z" fill="#B1DDEF"/>
<path d="M1725.71 1092.59C1728.1 1102.33 1716.27 1109.13 1709.05 1102.17L1579.92 977.454C1576.4 974.054 1575.86 968.607 1578.64 964.58L1579.61 963.172C1579.79 962.916 1579.95 962.667 1580.1 962.399C1581.91 959.347 1594.56 938.999 1618.47 925.259C1636.95 914.64 1660.86 911.404 1673.05 910.421C1677.68 910.048 1681.74 913.185 1682.84 917.696L1725.71 1092.59Z" fill="#B1DDEF"/>
<path d="M1747.61 1095.13C1743.75 1104.39 1730.19 1102.83 1728.52 1092.95L1698.65 915.928C1697.84 911.103 1700.64 906.398 1705.26 904.808L1706.88 904.252C1707.18 904.15 1707.45 904.042 1707.74 903.921C1711 902.537 1733.26 893.674 1760.66 896.813C1781.83 899.239 1802.99 910.83 1813.39 917.277C1817.33 919.725 1818.74 924.659 1816.95 928.945L1747.61 1095.13Z" fill="#B1DDEF"/>
<path d="M1763.39 1109.49C1754.86 1114.76 1744.75 1105.6 1749.15 1096.59L1828.01 935.318C1830.16 930.922 1835.17 928.727 1839.86 930.131L1841.5 930.621C1841.8 930.711 1842.08 930.782 1842.39 930.85C1845.85 931.628 1869.1 937.393 1889.54 955.906C1905.34 970.214 1915.78 991.963 1920.47 1003.26C1922.26 1007.55 1920.52 1012.37 1916.57 1014.82L1763.39 1109.49Z" fill="#B1DDEF"/>
<path d="M1769.25 1127.93C1759.25 1127.2 1756.44 1113.84 1765.29 1109.13L1923.77 1024.81C1928.09 1022.51 1933.44 1023.67 1936.41 1027.56L1937.45 1028.92C1937.64 1029.17 1937.83 1029.39 1938.03 1029.63C1940.38 1032.29 1955.83 1050.6 1961.52 1077.58C1965.91 1098.44 1961.61 1122.18 1958.78 1134.08C1957.71 1138.6 1953.47 1141.49 1948.84 1141.15L1769.25 1127.93Z" fill="#B1DDEF"/>
<path d="M1762.42 1146.89C1754.6 1140.61 1759.86 1128.02 1769.82 1129.16L1948.17 1149.61C1953.03 1150.17 1956.78 1154.16 1957.02 1159.05L1957.11 1160.76C1957.12 1161.07 1957.15 1161.36 1957.19 1161.67C1957.61 1165.19 1959.94 1189.04 1949.32 1214.49C1941.11 1234.16 1924.1 1251.27 1915.02 1259.46C1911.58 1262.57 1906.45 1262.55 1902.82 1259.64L1762.42 1146.89Z" fill="#B1DDEF"/>
<path d="M1742.07 1159C1739.64 1149.27 1751.44 1142.41 1758.69 1149.34L1888.44 1273.41C1891.97 1276.79 1892.54 1282.23 1889.78 1286.28L1888.82 1287.69C1888.64 1287.95 1888.49 1288.2 1888.33 1288.46C1886.54 1291.53 1873.99 1311.94 1850.15 1325.8C1831.72 1336.51 1807.83 1339.86 1795.64 1340.9C1791.02 1341.3 1786.94 1338.18 1785.81 1333.68L1742.07 1159Z" fill="#B1DDEF"/>
<path d="M1720.17 1156.57C1723.98 1147.29 1737.55 1148.78 1739.27 1158.66L1770.02 1335.53C1770.86 1340.35 1768.08 1345.07 1763.46 1346.68L1761.85 1347.24C1761.55 1347.35 1761.28 1347.46 1760.99 1347.58C1757.74 1348.98 1735.52 1357.95 1708.11 1354.95C1686.92 1352.63 1665.7 1341.14 1655.28 1334.75C1651.32 1332.32 1649.89 1327.39 1651.66 1323.1L1720.17 1156.57Z" fill="#B1DDEF"/>
<path d="M1704.31 1142.29C1712.81 1136.97 1722.97 1146.09 1718.62 1155.12L1640.56 1316.78C1638.44 1321.19 1633.43 1323.41 1628.74 1322.03L1627.1 1321.55C1626.8 1321.46 1626.51 1321.39 1626.21 1321.32C1622.74 1320.56 1599.46 1314.91 1578.93 1296.5C1563.06 1282.27 1552.51 1260.57 1547.76 1249.3C1545.96 1245.02 1547.67 1240.19 1551.61 1237.73L1704.31 1142.29Z" fill="#B1DDEF"/>
<path d="M1698.36 1123.87C1708.36 1124.56 1711.25 1137.9 1702.42 1142.66L1544.36 1227.77C1540.05 1230.09 1534.7 1228.95 1531.7 1225.08L1530.66 1223.73C1530.47 1223.48 1530.28 1223.26 1530.07 1223.02C1527.71 1220.37 1512.17 1202.14 1506.35 1175.18C1501.85 1154.35 1506.03 1130.59 1508.8 1118.68C1509.85 1114.15 1514.07 1111.24 1518.71 1111.56L1698.36 1123.87Z" fill="#B1DDEF"/>
<path d="M1120.5 1421.94C1120.5 1555.27 1012.16 1663.38 878.5 1663.38C744.835 1663.38 636.5 1555.27 636.5 1421.94C636.5 1288.61 744.835 1180.5 878.5 1180.5C1012.16 1180.5 1120.5 1288.61 1120.5 1421.94Z" stroke="#FFD467" stroke-width="11"/>
<path d="M855.991 1395.01C863.824 1401.27 858.597 1413.88 848.633 1412.76L680.869 1393.93C676.007 1393.38 672.253 1389.4 671.999 1384.51L671.936 1383.31C671.92 1383 671.891 1382.71 671.854 1382.4C671.436 1378.97 669.192 1356.32 679.223 1332.13C686.91 1313.59 702.804 1297.41 711.493 1289.49C714.926 1286.36 720.051 1286.38 723.679 1289.27L855.991 1395.01Z" fill="#FFD467"/>
<path d="M873.071 1384.32C875.458 1394.06 863.624 1400.86 856.412 1393.9L734.982 1276.62C731.462 1273.22 730.919 1267.77 733.699 1263.75L734.379 1262.76C734.556 1262.5 734.712 1262.25 734.871 1261.99C736.632 1259.01 748.671 1239.7 771.382 1226.65C788.785 1216.65 811.249 1213.53 822.963 1212.56C827.592 1212.17 831.645 1215.31 832.751 1219.82L873.071 1384.32Z" fill="#FFD467"/>
<path d="M894.951 1386.82C891.09 1396.08 877.529 1394.52 875.861 1384.64L847.775 1218.17C846.961 1213.35 849.758 1208.64 854.386 1207.05L855.519 1206.66C855.813 1206.56 856.088 1206.45 856.374 1206.33C859.555 1204.98 880.709 1196.59 906.733 1199.57C926.674 1201.86 946.604 1212.68 956.607 1218.86C960.559 1221.29 961.958 1226.23 960.17 1230.51L894.951 1386.82Z" fill="#FFD467"/>
<path d="M910.752 1401.15C902.223 1406.42 892.107 1397.26 896.511 1388.25L970.666 1236.59C972.816 1232.2 977.83 1230 982.518 1231.4L983.666 1231.75C983.964 1231.84 984.25 1231.91 984.554 1231.98C987.923 1232.74 1010.01 1238.24 1029.42 1255.82C1044.3 1269.3 1054.19 1289.71 1058.72 1300.55C1060.51 1304.84 1058.78 1309.66 1054.83 1312.1L910.752 1401.15Z" fill="#FFD467"/>
<path d="M916.572 1419.7C906.572 1418.97 903.757 1405.61 912.609 1400.9L1061.64 1321.6C1065.96 1319.31 1071.31 1320.47 1074.28 1324.36L1075.01 1325.31C1075.2 1325.56 1075.39 1325.78 1075.6 1326.02C1077.88 1328.61 1092.53 1346.02 1097.93 1371.65C1102.08 1391.29 1098.11 1413.62 1095.42 1425.06C1094.35 1429.59 1090.12 1432.47 1085.49 1432.13L916.572 1419.7Z" fill="#FFD467"/>
<path d="M909.707 1438.67C901.889 1432.39 907.147 1419.8 917.108 1420.94L1084.83 1440.17C1089.69 1440.73 1093.43 1444.72 1093.67 1449.61L1093.73 1450.81C1093.75 1451.12 1093.78 1451.41 1093.81 1451.72C1094.22 1455.15 1096.41 1477.8 1086.33 1501.97C1078.59 1520.5 1062.66 1536.64 1053.95 1544.54C1050.51 1547.65 1045.39 1547.63 1041.77 1544.72L909.707 1438.67Z" fill="#FFD467"/>
<path d="M889.447 1450.77C887.011 1441.04 898.811 1434.18 906.058 1441.11L1028.07 1557.78C1031.61 1561.16 1032.18 1566.61 1029.42 1570.65L1028.74 1571.64C1028.57 1571.89 1028.41 1572.15 1028.25 1572.41C1026.51 1575.39 1014.57 1594.77 991.921 1607.93C974.568 1618.02 952.119 1621.25 940.41 1622.28C935.784 1622.69 931.715 1619.57 930.587 1615.07L889.447 1450.77Z" fill="#FFD467"/>
<path d="M867.556 1448.38C871.371 1439.1 884.939 1440.59 886.657 1450.47L915.572 1616.79C916.411 1621.61 913.637 1626.33 909.017 1627.94L907.886 1628.34C907.592 1628.44 907.318 1628.55 907.032 1628.67C903.858 1630.04 882.747 1638.53 856.709 1635.68C836.756 1633.5 816.772 1622.77 806.739 1616.65C802.774 1614.23 801.351 1609.31 803.118 1605.01L867.556 1448.38Z" fill="#FFD467"/>
<path d="M851.682 1434.13C860.185 1428.81 870.347 1437.93 865.987 1446.96L792.59 1598.98C790.462 1603.39 785.458 1605.61 780.764 1604.23L779.614 1603.89C779.316 1603.8 779.029 1603.73 778.725 1603.67C775.352 1602.92 753.242 1597.53 733.741 1580.04C718.797 1566.64 708.804 1546.28 704.216 1535.46C702.404 1531.19 704.116 1526.35 708.054 1523.89L851.682 1434.13Z" fill="#FFD467"/>
<path d="M845.77 1415.6C855.773 1416.29 858.655 1429.63 849.827 1434.38L701.191 1514.43C696.882 1516.75 691.528 1515.61 688.536 1511.73L687.803 1510.79C687.613 1510.54 687.422 1510.32 687.216 1510.08C684.92 1507.5 670.18 1490.16 664.649 1464.56C660.41 1444.94 664.264 1422.59 666.899 1411.13C667.941 1406.61 672.161 1403.7 676.795 1404.02L845.77 1415.6Z" fill="#FFD467"/>
<path d="M2233.5 377.689C2233.5 572.737 2075.02 730.877 1879.5 730.877C1683.98 730.877 1525.5 572.737 1525.5 377.689C1525.5 182.64 1683.98 24.5 1879.5 24.5C2075.02 24.5 2233.5 182.64 2233.5 377.689Z" stroke="#FCFF67" stroke-width="11"/>
<path d="M1859.04 348.351C1866.88 354.61 1861.65 367.219 1851.69 366.1L1588.62 336.568C1583.76 336.022 1580.01 332.038 1579.75 327.151L1579.45 321.369C1579.43 321.058 1579.4 320.757 1579.37 320.448C1578.83 316.208 1575.27 282.878 1590.05 247.231C1602.05 218.266 1627.85 193.27 1639.59 182.904C1643.07 179.83 1648.19 179.847 1651.82 182.747L1859.04 348.351Z" fill="#FCFF67"/>
<path d="M1875.34 338.263C1877.73 348.001 1865.9 354.802 1858.68 347.836L1668.27 163.938C1664.76 160.539 1664.21 155.092 1666.99 151.065L1670.28 146.299C1670.46 146.043 1670.62 145.787 1670.78 145.518C1672.94 141.833 1690.45 113.25 1723.91 94.0237C1751.1 78.4004 1786.79 74.3354 1802.41 73.2834C1807.04 72.9714 1811.09 76.1089 1812.19 80.6197L1875.34 338.263Z" fill="#FCFF67"/>
<path d="M1897.36 341.135C1893.5 350.389 1879.94 348.835 1878.27 338.948L1834.23 77.9217C1833.42 73.0967 1836.22 68.3912 1840.84 66.8009L1846.32 64.919C1846.61 64.8178 1846.89 64.7066 1847.18 64.5842C1851.11 62.9031 1882.17 50.2999 1920.51 54.6919C1951.66 58.2608 1982.79 76.1787 1995.99 84.6075C1999.9 87.1076 2001.3 92.0343 1999.51 96.3205L1897.36 341.135Z" fill="#FCFF67"/>
<path d="M1913.02 355.725C1904.49 360.996 1894.38 351.833 1898.78 342.826L2015.06 105.016C2017.21 100.62 2022.22 98.4251 2026.91 99.8286L2032.46 101.489C2032.76 101.579 2033.05 101.652 2033.35 101.719C2037.53 102.642 2070.11 110.495 2098.71 136.4C2121.95 157.45 2136.82 190.15 2142.63 204.689C2144.36 209.001 2142.62 213.817 2138.67 216.259L1913.02 355.725Z" fill="#FCFF67"/>
<path d="M1919.18 373.29C1909.18 372.555 1906.36 359.199 1915.21 354.489L2148.91 230.144C2153.23 227.845 2158.58 229.011 2161.55 232.898L2165.07 237.497C2165.25 237.744 2165.45 237.976 2165.66 238.208C2168.49 241.404 2190.27 266.884 2198.23 304.642C2204.7 335.324 2197.55 370.526 2193.73 385.71C2192.6 390.214 2188.36 393.094 2183.73 392.753L1919.18 373.29Z" fill="#FCFF67"/>
<path d="M1912.62 392.179C1904.8 385.9 1910.05 373.304 1920.02 374.447L2183.01 404.606C2187.87 405.164 2191.61 409.157 2191.86 414.044L2192.14 419.828C2192.16 420.139 2192.19 420.439 2192.23 420.748C2192.75 424.99 2196.23 458.329 2181.37 493.939C2169.29 522.876 2143.44 547.811 2131.68 558.148C2128.19 561.214 2123.07 561.185 2119.45 558.277L1912.62 392.179Z" fill="#FCFF67"/>
<path d="M1891.6 404.362C1889.16 394.635 1900.96 387.776 1908.21 394.705L2099.53 577.652C2103.07 581.033 2103.64 586.478 2100.88 590.518L2097.61 595.3C2097.44 595.557 2097.28 595.814 2097.12 596.084C2094.98 599.78 2077.61 628.449 2044.25 647.842C2017.14 663.601 1981.47 667.844 1965.85 668.974C1961.22 669.309 1957.16 666.192 1956.03 661.687L1891.6 404.362Z" fill="#FCFF67"/>
<path d="M1869.56 401.599C1873.38 392.327 1886.95 393.812 1888.66 403.691L1934.01 664.495C1934.84 669.315 1932.07 674.035 1927.45 675.648L1921.98 677.557C1921.69 677.66 1921.41 677.773 1921.12 677.896C1917.2 679.597 1886.21 692.355 1847.85 688.154C1816.68 684.741 1785.46 666.978 1772.22 658.615C1768.29 656.135 1766.87 651.215 1768.64 646.92L1869.56 401.599Z" fill="#FCFF67"/>
<path d="M1853.83 387.088C1862.33 381.774 1872.5 390.886 1868.14 399.916L1753.04 638.302C1750.92 642.709 1745.91 644.929 1741.22 643.549L1735.66 641.915C1735.36 641.828 1735.07 641.756 1734.77 641.69C1730.59 640.788 1697.96 633.098 1669.23 607.336C1645.89 586.402 1630.86 553.776 1624.97 539.266C1623.23 534.963 1624.94 530.138 1628.88 527.677L1853.83 387.088Z" fill="#FCFF67"/>
<path d="M1847.59 369.553C1857.59 370.239 1860.47 383.58 1851.64 388.334L1618.57 513.843C1614.27 516.163 1608.91 515.025 1605.92 511.153L1602.38 506.571C1602.19 506.325 1601.99 506.094 1601.79 505.863C1598.93 502.681 1577.02 477.31 1568.88 439.592C1562.25 408.943 1569.23 373.706 1572.98 358.502C1574.09 353.993 1578.31 351.092 1582.94 351.41L1847.59 369.553Z" fill="#FCFF67"/>
<path d="M959.047 413C959.047 623.118 788.147 793.5 577.273 793.5C366.4 793.5 195.5 623.118 195.5 413C195.5 202.882 366.4 32.5 577.273 32.5C788.147 32.5 959.047 202.882 959.047 413Z" stroke="#B5DA85" stroke-width="17"/>
<path d="M561.453 455.038C567.689 444.665 583.011 445.569 587.984 456.604L706.52 719.65C710.478 728.435 705.246 738.62 695.8 740.519L690.095 741.666C689.795 741.726 689.538 741.785 689.242 741.86C684.025 743.189 628.774 756.717 557.201 752.491C503.22 749.304 447.368 733.161 420.116 724.294C411.203 721.393 407.54 711.03 412.37 702.997L561.453 455.038Z" fill="#B5DA85"/>
<path d="M610.938 451.82C605.185 441.171 613.764 428.445 625.794 429.783L912.546 461.681C922.122 462.746 928.225 472.435 925.05 481.532L923.132 487.026C923.031 487.315 922.951 487.566 922.865 487.859C921.353 493.026 904.867 547.468 864.791 606.919C834.565 651.758 792.236 691.611 770.729 710.552C763.695 716.746 752.91 714.623 748.455 706.376L610.938 451.82Z" fill="#B5DA85"/>
<path d="M622.867 402.626C610.767 402.313 604.002 388.536 611.153 378.77L781.599 145.978C787.291 138.203 798.732 137.735 805.04 145.019L808.85 149.418C809.05 149.648 809.228 149.843 809.439 150.063C813.167 153.948 852.172 195.353 883.773 259.71C907.607 308.25 921.091 364.802 926.808 392.885C928.677 402.069 921.466 410.365 912.096 410.122L622.867 402.626Z" fill="#B5DA85"/>
<path d="M590.06 371.21C583.667 381.488 568.361 380.353 563.555 369.244L448.995 104.442C445.169 95.5986 450.554 85.4933 460.028 83.7372L465.75 82.6766C466.05 82.621 466.308 82.5659 466.605 82.495C471.842 81.2446 527.291 68.5501 598.791 73.8538C652.719 77.854 708.321 94.8363 735.436 104.114C744.304 107.148 747.811 117.565 742.861 125.524L590.06 371.21Z" fill="#B5DA85"/>
<path d="M546.116 373.848C551.593 384.642 542.689 397.144 530.698 395.496L244.862 356.228C235.316 354.916 229.465 345.074 232.873 336.061L234.932 330.618C235.04 330.333 235.127 330.083 235.22 329.793C236.865 324.666 254.746 270.666 296.339 212.267C327.71 168.221 371.051 129.471 393.038 111.09C400.229 105.078 410.955 107.479 415.197 115.837L546.116 373.848Z" fill="#B5DA85"/>
<path d="M535.757 419.429C547.847 419.985 554.335 433.894 546.991 443.515L371.916 672.846C366.069 680.505 354.621 680.744 348.46 673.336L344.739 668.861C344.544 668.627 344.37 668.428 344.163 668.204C340.513 664.246 302.346 622.068 272.041 557.09C249.183 508.083 236.835 451.272 231.682 423.08C229.996 413.86 237.373 405.711 246.735 406.142L535.757 419.429Z" fill="#B5DA85"/>
<path d="M2023.5 1826.5C2023.5 1989.96 1890.55 2122.51 1726.5 2122.51C1562.45 2122.51 1429.5 1989.96 1429.5 1826.5C1429.5 1663.05 1562.45 1530.5 1726.5 1530.5C1890.55 1530.5 2023.5 1663.05 2023.5 1826.5Z" stroke="#FCFF67" stroke-width="17"/>
<path d="M1710.91 1864.74C1717.15 1854.37 1732.47 1855.27 1737.44 1866.31L1825.99 2062.82C1829.95 2071.6 1824.72 2081.79 1815.27 2083.69L1814.91 2083.76C1814.61 2083.82 1814.34 2083.88 1814.04 2083.96C1809.36 2085.14 1766.36 2095.53 1710.79 2092.25C1670.85 2089.89 1629.6 2078.48 1607.19 2071.37C1598.25 2068.54 1594.6 2058.19 1599.43 2050.15L1710.91 1864.74Z" fill="#FCFF67"/>
<path d="M1755.81 1862.37C1750.06 1851.72 1758.64 1838.99 1770.67 1840.33L1984.88 1864.16C1994.46 1865.22 2000.56 1874.91 1997.39 1884.01L1997.27 1884.36C1997.17 1884.64 1997.08 1884.92 1996.99 1885.21C1995.63 1889.84 1982.68 1932.14 1951.56 1978.3C1929.2 2011.48 1898.37 2041.16 1880.85 2056.84C1873.86 2063.09 1863.09 2060.96 1858.64 2052.71L1755.81 1862.37Z" fill="#FCFF67"/>
<path d="M1768.41 1818.54C1756.31 1818.23 1749.55 1804.45 1756.7 1794.69L1884.03 1620.78C1889.72 1613.01 1901.16 1612.54 1907.47 1619.82L1907.71 1620.1C1907.91 1620.33 1908.1 1620.54 1908.31 1620.76C1911.65 1624.25 1941.89 1656.54 1966.42 1706.51C1984.06 1742.42 1994.45 1783.94 1999.32 1806.95C2001.26 1816.12 1994.05 1824.39 1984.68 1824.15L1768.41 1818.54Z" fill="#FCFF67"/>
<path d="M1739.8 1788.51C1733.4 1798.78 1718.1 1797.65 1713.29 1786.54L1627.71 1588.72C1623.88 1579.88 1629.27 1569.77 1638.74 1568.02L1639.1 1567.95C1639.4 1567.89 1639.68 1567.83 1639.98 1567.76C1644.68 1566.65 1687.83 1556.91 1743.34 1561.02C1783.24 1563.98 1824.31 1576.02 1846.62 1583.47C1855.51 1586.43 1859 1596.84 1854.05 1604.79L1739.8 1788.51Z" fill="#FCFF67"/>
<path d="M1699.29 1790.31C1704.77 1801.1 1695.87 1813.6 1683.88 1811.95L1470.34 1782.62C1460.8 1781.31 1454.95 1771.47 1458.36 1762.45L1458.49 1762.11C1458.59 1761.82 1458.69 1761.55 1458.78 1761.26C1460.26 1756.67 1474.3 1714.71 1506.59 1669.37C1529.8 1636.78 1561.38 1607.9 1579.31 1592.68C1586.45 1586.61 1597.16 1589.02 1601.4 1597.38L1699.29 1790.31Z" fill="#FCFF67"/>
<path d="M1687.79 1831.25C1699.88 1831.81 1706.36 1845.72 1699.02 1855.34L1568.23 2026.66C1562.38 2034.32 1550.94 2034.55 1544.77 2027.15L1544.54 2026.86C1544.34 2026.63 1544.16 2026.42 1543.95 2026.19C1540.68 2022.63 1511.1 1989.74 1487.57 1939.29C1470.66 1903.04 1461.09 1861.32 1456.69 1838.22C1454.94 1829.01 1462.31 1820.88 1471.67 1821.31L1687.79 1831.25Z" fill="#FCFF67"/>
</g>
</svg>
