<svg width="36" height="24" viewBox="0 0 36 24" fill="none" xmlns="http://www.w3.org/2000/svg">
<path d="M25 12C25 15.8687 21.8687 19 18 19C14.1313 19 11 15.8687 11 12C11 8.13125 14.1313 5 18 5C21.8687 5 25 8.13125 25 12ZM17 10V14H16.5C15.95 14 15.5 14.45 15.5 15C15.5 15.55 15.95 16 16.5 16H19.5C20.05 16 20.5 15.55 20.5 15C20.5 14.45 20.05 14 19.5 14H19V9C19 8.45 18.55 8 18 8H17C16.45 8 16 8.45 16 9C16 9.55 16.45 10 17 10ZM0 4C0 1.79063 1.79063 0 4 0H32C34.2062 0 36 1.79063 36 4V20C36 22.2062 34.2062 24 32 24H4C1.79063 24 0 22.2062 0 20V4ZM3 7V17C5.20937 17 7 18.7938 7 21H29C29 18.7938 30.7938 17 33 17V7C30.7938 7 29 5.20625 29 3H7C7 5.20625 5.20937 7 3 7Z" fill="#B5DA85"/>
</svg>
