<svg width="36" height="36" viewBox="0 0 36 36" fill="none" xmlns="http://www.w3.org/2000/svg">
<path d="M16.3125 8.4375C16.3125 7.50234 17.0648 6.75 18 6.75C18.9352 6.75 19.6875 7.50234 19.6875 8.4375V17.1L25.6852 21.0938C26.4586 21.6141 26.6695 22.6617 26.093 23.4352C25.6359 24.2086 24.5883 24.4195 23.8148 23.843L17.0648 19.343C16.5938 19.0898 16.3125 18.5625 16.3125 17.9367V8.4375ZM18 0C27.9422 0 36 8.05781 36 18C36 27.9422 27.9422 36 18 36C8.05781 36 0 27.9422 0 18C0 8.05781 8.05781 0 18 0ZM3.375 18C3.375 26.0789 9.92109 32.625 18 32.625C26.0789 32.625 32.625 26.0789 32.625 18C32.625 9.92109 26.0789 3.375 18 3.375C9.92109 3.375 3.375 9.92109 3.375 18Z" fill="#B5DA85"/>
</svg>
